<svg id="visual" viewBox="0 0 900 600" width="900" height="600" xmlns="http://www.w3.org/2000/svg" xmlns:xlink="http://www.w3.org/1999/xlink" version="1.1"><rect x="0" y="0" width="900" height="600" fill="#F6F6F6"></rect><defs><linearGradient id="grad1_0" x1="33.3%" y1="0%" x2="100%" y2="100%"><stop offset="20%" stop-color="#f6f6f6" stop-opacity="1"></stop><stop offset="80%" stop-color="#f6f6f6" stop-opacity="1"></stop></linearGradient></defs><defs><linearGradient id="grad2_0" x1="0%" y1="0%" x2="66.7%" y2="100%"><stop offset="20%" stop-color="#f6f6f6" stop-opacity="1"></stop><stop offset="80%" stop-color="#f6f6f6" stop-opacity="1"></stop></linearGradient></defs><g transform="translate(900, 0)"><path d="M0 486.7C-51 453.3 -102.1 419.9 -166.8 402.8C-231.6 385.7 -310.1 384.8 -344.2 344.2C-378.3 303.6 -368 223.2 -384.3 159.2C-400.7 95.2 -443.7 47.6 -486.7 0L0 0Z" fill="#F7CAC9"></path></g><g transform="translate(0, 600)"><path d="M0 -486.7C66.8 -477.6 133.6 -468.4 179.9 -434.2C226.1 -400 251.9 -340.8 299.1 -299.1C346.3 -257.4 414.9 -233.2 449.7 -186.3C484.5 -139.3 485.6 -69.7 486.7 0L0 0Z" fill="#F7CAC9"></path></g></svg>